<mxfile host="app.diagrams.net" modified="2020-05-16T11:31:52.243Z" agent="5.0 (X11; Linux x86_64) AppleWebKit/537.36 (KHTML, like Gecko) Chrome/78.0.3904.87 Safari/537.36" etag="Hc28sdwekUfYShs7tf2r" version="13.1.2" type="github">
  <diagram name="Page-1" id="13e1069c-82ec-6db2-03f1-153e76fe0fe0">
    <mxGraphModel dx="1182" dy="771" grid="1" gridSize="10" guides="1" tooltips="1" connect="1" arrows="1" fold="1" page="1" pageScale="1" pageWidth="1100" pageHeight="850" background="#ffffff" math="0" shadow="0">
      <root>
        <mxCell id="0" />
        <mxCell id="1" parent="0" />
        <mxCell id="VvFMMPA0jHI5snv_zB9W-1" value="MyHomeServerMqttClient" style="shape=umlLifeline;perimeter=lifelinePerimeter;whiteSpace=wrap;html=1;container=1;collapsible=0;recursiveResize=0;outlineConnect=0;" vertex="1" parent="1">
          <mxGeometry x="270" y="40" width="160" height="320" as="geometry" />
        </mxCell>
        <mxCell id="VvFMMPA0jHI5snv_zB9W-5" value="" style="html=1;points=[];perimeter=orthogonalPerimeter;" vertex="1" parent="VvFMMPA0jHI5snv_zB9W-1">
          <mxGeometry x="75" y="70" width="10" height="230" as="geometry" />
        </mxCell>
        <mxCell id="VvFMMPA0jHI5snv_zB9W-4" value="NodeMqttClient" style="shape=umlLifeline;perimeter=lifelinePerimeter;whiteSpace=wrap;html=1;container=1;collapsible=0;recursiveResize=0;outlineConnect=0;" vertex="1" parent="1">
          <mxGeometry x="30" y="40" width="100" height="320" as="geometry" />
        </mxCell>
        <mxCell id="VvFMMPA0jHI5snv_zB9W-7" value="" style="html=1;points=[];perimeter=orthogonalPerimeter;" vertex="1" parent="VvFMMPA0jHI5snv_zB9W-4">
          <mxGeometry x="45" y="70" width="10" height="230" as="geometry" />
        </mxCell>
        <mxCell id="VvFMMPA0jHI5snv_zB9W-8" value="PUB: myhome/srv/base/{id}/auth" style="html=1;verticalAlign=bottom;endArrow=block;exitX=0.9;exitY=0.163;exitDx=0;exitDy=0;exitPerimeter=0;" edge="1" parent="1" target="VvFMMPA0jHI5snv_zB9W-5">
          <mxGeometry width="80" relative="1" as="geometry">
            <mxPoint x="84" y="120.00000000000001" as="sourcePoint" />
            <mxPoint x="340" y="120" as="targetPoint" />
          </mxGeometry>
        </mxCell>
        <mxCell id="VvFMMPA0jHI5snv_zB9W-13" value="" style="html=1;points=[];perimeter=orthogonalPerimeter;" vertex="1" parent="1">
          <mxGeometry x="350" y="150" width="10" height="40" as="geometry" />
        </mxCell>
        <mxCell id="VvFMMPA0jHI5snv_zB9W-14" value="SUB: myhome/srv/base/+/auth" style="edgeStyle=orthogonalEdgeStyle;html=1;align=left;spacingLeft=2;endArrow=block;rounded=0;entryX=1;entryY=0;" edge="1" target="VvFMMPA0jHI5snv_zB9W-13" parent="1">
          <mxGeometry relative="1" as="geometry">
            <mxPoint x="355" y="130" as="sourcePoint" />
            <Array as="points">
              <mxPoint x="380" y="130" />
            </Array>
          </mxGeometry>
        </mxCell>
        <mxCell id="VvFMMPA0jHI5snv_zB9W-17" value="PUB: myhome/node/base/{id}" style="html=1;verticalAlign=bottom;endArrow=open;dashed=1;endSize=8;exitX=-0.2;exitY=0.317;exitDx=0;exitDy=0;exitPerimeter=0;" edge="1" parent="1" source="VvFMMPA0jHI5snv_zB9W-5" target="VvFMMPA0jHI5snv_zB9W-7">
          <mxGeometry relative="1" as="geometry">
            <mxPoint x="310" y="180" as="sourcePoint" />
            <mxPoint x="360" y="180" as="targetPoint" />
          </mxGeometry>
        </mxCell>
        <mxCell id="VvFMMPA0jHI5snv_zB9W-20" value="" style="html=1;points=[];perimeter=orthogonalPerimeter;" vertex="1" parent="1">
          <mxGeometry x="80" y="220" width="10" height="30" as="geometry" />
        </mxCell>
        <mxCell id="VvFMMPA0jHI5snv_zB9W-21" value="&lt;span style=&quot;text-align: center&quot;&gt;SUB: myhome/node/base/{id}&lt;/span&gt;" style="edgeStyle=orthogonalEdgeStyle;html=1;align=left;spacingLeft=2;endArrow=block;rounded=0;entryX=1;entryY=0;" edge="1" target="VvFMMPA0jHI5snv_zB9W-20" parent="1">
          <mxGeometry relative="1" as="geometry">
            <mxPoint x="85" y="200" as="sourcePoint" />
            <Array as="points">
              <mxPoint x="110" y="200" />
            </Array>
          </mxGeometry>
        </mxCell>
        <mxCell id="VvFMMPA0jHI5snv_zB9W-24" value="" style="html=1;points=[];perimeter=orthogonalPerimeter;" vertex="1" parent="1">
          <mxGeometry x="80" y="270" width="10" height="40" as="geometry" />
        </mxCell>
        <mxCell id="VvFMMPA0jHI5snv_zB9W-25" value="handler: auth" style="edgeStyle=orthogonalEdgeStyle;html=1;align=left;spacingLeft=2;endArrow=block;rounded=0;entryX=1;entryY=0;" edge="1" target="VvFMMPA0jHI5snv_zB9W-24" parent="1">
          <mxGeometry relative="1" as="geometry">
            <mxPoint x="85" y="250" as="sourcePoint" />
            <Array as="points">
              <mxPoint x="110" y="250" />
            </Array>
          </mxGeometry>
        </mxCell>
      </root>
    </mxGraphModel>
  </diagram>
</mxfile>
